<svg width="46" height="42" viewBox="0 0 46 42" fill="none" xmlns="http://www.w3.org/2000/svg">
<path d="M38.9375 0.375H20.1875C18.4476 0.376861 16.7795 1.06886 15.5492 2.29917C14.3189 3.52947 13.6269 5.19759 13.625 6.9375V19.125H31.598L25.4246 12.9504C25.0878 12.5959 24.9028 12.1239 24.9091 11.6349C24.9154 11.146 25.1124 10.6789 25.4581 10.3331C25.8039 9.98737 26.271 9.79036 26.7599 9.7841C27.2489 9.77784 27.7209 9.96282 28.0754 10.2996L37.4504 19.6746C37.8018 20.0262 37.9991 20.5029 37.9991 21C37.9991 21.4971 37.8018 21.9738 37.4504 22.3254L28.0754 31.7004C27.7209 32.0372 27.2489 32.2222 26.7599 32.2159C26.271 32.2096 25.8039 32.0126 25.4581 31.6669C25.1124 31.3211 24.9154 30.854 24.9091 30.3651C24.9028 29.8761 25.0878 29.4041 25.4246 29.0496L31.598 22.875H13.625V35.0625C13.625 38.8184 17.5848 41.625 21.125 41.625H38.9375C40.6774 41.6231 42.3455 40.9311 43.5758 39.7008C44.8061 38.4705 45.4981 36.8024 45.5 35.0625V6.9375C45.4981 5.19759 44.8061 3.52947 43.5758 2.29917C42.3455 1.06886 40.6774 0.376861 38.9375 0.375Z" fill="#0095FF"/>
<path d="M2.375 19.125C1.87772 19.125 1.40081 19.3225 1.04918 19.6742C0.697544 20.0258 0.5 20.5027 0.5 21C0.5 21.4973 0.697544 21.9742 1.04918 22.3258C1.40081 22.6775 1.87772 22.875 2.375 22.875H13.625V19.125H2.375Z" fill="#0095FF"/>
</svg>
