<svg width="18" height="21" viewBox="0 0 18 21" fill="none" xmlns="http://www.w3.org/2000/svg">
<path d="M15 12H14.32L12.32 14H14.23L16 16H2L3.78 14H5.83L3.83 12H3L0 15V19C0 20.1 0.89 21 1.99 21H16C17.1 21 18 20.11 18 19V15L15 12ZM14 6.94999L9.05 11.9L5.51 8.35999L10.46 3.40999L14 6.94999ZM9.76 1.28999L3.39 7.65999C3 8.04999 3 8.67999 3.39 9.06999L8.34 14.02C8.73 14.41 9.36 14.41 9.75 14.02L16.11 7.65999C16.5 7.26999 16.5 6.63999 16.11 6.24999L11.16 1.29999C10.78 0.899988 10.15 0.899988 9.76 1.28999Z" fill="#7E8C99"/>
</svg>
