<svg width="18" height="20" viewBox="0 0 18 20" fill="none" xmlns="http://www.w3.org/2000/svg">
<path d="M17.5179 18.75H16.7143V0.9375C16.7143 0.419727 16.2826 0 15.75 0H2.25C1.71743 0 1.28571 0.419727 1.28571 0.9375V18.75H0.482143C0.215879 18.75 0 18.9599 0 19.2188V20H18V19.2188C18 18.9599 17.7841 18.75 17.5179 18.75ZM5.14286 2.96875C5.14286 2.70988 5.35874 2.5 5.625 2.5H7.23214C7.49841 2.5 7.71429 2.70988 7.71429 2.96875V4.53125C7.71429 4.79012 7.49841 5 7.23214 5H5.625C5.35874 5 5.14286 4.79012 5.14286 4.53125V2.96875ZM5.14286 6.71875C5.14286 6.45988 5.35874 6.25 5.625 6.25H7.23214C7.49841 6.25 7.71429 6.45988 7.71429 6.71875V8.28125C7.71429 8.54012 7.49841 8.75 7.23214 8.75H5.625C5.35874 8.75 5.14286 8.54012 5.14286 8.28125V6.71875ZM7.23214 12.5H5.625C5.35874 12.5 5.14286 12.2901 5.14286 12.0312V10.4688C5.14286 10.2099 5.35874 10 5.625 10H7.23214C7.49841 10 7.71429 10.2099 7.71429 10.4688V12.0312C7.71429 12.2901 7.49841 12.5 7.23214 12.5ZM10.2857 18.75H7.71429V15.4688C7.71429 15.2099 7.93017 15 8.19643 15H9.80357C10.0698 15 10.2857 15.2099 10.2857 15.4688V18.75ZM12.8571 12.0312C12.8571 12.2901 12.6413 12.5 12.375 12.5H10.7679C10.5016 12.5 10.2857 12.2901 10.2857 12.0312V10.4688C10.2857 10.2099 10.5016 10 10.7679 10H12.375C12.6413 10 12.8571 10.2099 12.8571 10.4688V12.0312ZM12.8571 8.28125C12.8571 8.54012 12.6413 8.75 12.375 8.75H10.7679C10.5016 8.75 10.2857 8.54012 10.2857 8.28125V6.71875C10.2857 6.45988 10.5016 6.25 10.7679 6.25H12.375C12.6413 6.25 12.8571 6.45988 12.8571 6.71875V8.28125ZM12.8571 4.53125C12.8571 4.79012 12.6413 5 12.375 5H10.7679C10.5016 5 10.2857 4.79012 10.2857 4.53125V2.96875C10.2857 2.70988 10.5016 2.5 10.7679 2.5H12.375C12.6413 2.5 12.8571 2.70988 12.8571 2.96875V4.53125Z" fill="#7E8C99"/>
</svg>
